<svg width="28" height="29" viewBox="0 0 28 29" fill="none" xmlns="http://www.w3.org/2000/svg">
<path d="M21.8923 22.0529C21.1457 22.7529 21.1457 23.9196 21.8923 24.6663C22.2657 25.0396 22.7323 25.2263 23.199 25.2263C23.6656 25.2263 24.1323 25.0396 24.5056 24.6663C25.2523 23.9663 25.2523 22.7996 24.5056 22.0529C23.8057 21.3063 22.639 21.3063 21.8923 22.0529ZM23.8523 24.0596C23.479 24.4329 22.919 24.4329 22.5457 24.0596C22.1724 23.6862 22.1723 23.1262 22.5457 22.7529C22.7323 22.5663 22.9657 22.4729 23.199 22.4729C23.4324 22.4729 23.6657 22.5663 23.8524 22.7529C24.2257 23.1263 24.2257 23.6863 23.8523 24.0596Z" fill="#E3B873"/>
<path d="M27.6795 22.6129L19.2795 14.2129L22.5929 10.8995L22.5929 10.8995L24.5529 8.93954L24.5529 8.93948L27.3995 6.09289C28.1929 5.29954 28.1929 3.99289 27.3995 3.19954L25.0195 0.819539C24.6462 0.446242 24.1329 0.212891 23.5729 0.212891C23.0129 0.212891 22.4995 0.446242 22.1262 0.819539L19.2796 3.66619L17.3196 5.62619L14.0062 8.93954L5.69952 0.632891C5.18617 0.119539 4.25287 0.119539 3.73952 0.632891L0.426226 3.94624C-0.133774 4.45959 -0.133774 5.34624 0.426226 5.90624L1.40623 6.88624L4.06623 9.54624L6.67952 12.1595C6.67952 12.1595 6.67952 12.1595 6.67958 12.1596L8.73288 14.2129L1.24145 21.7043C1.10178 21.7659 1.02648 21.8919 0.986226 22.0529L0.00622559 27.6529C0.00622559 27.8395 0.052874 27.9795 0.146226 28.0729C0.239523 28.1662 0.332874 28.2129 0.472874 28.2129C0.519523 28.2129 0.519523 28.2129 0.566226 28.2129L5.94994 27.2176C5.98718 27.2274 6.02738 27.2329 6.07288 27.2329C6.21288 27.2329 6.35288 27.1862 6.39952 27.0929L14.0062 19.4862L14.6128 20.0929C14.6128 20.0929 14.6128 20.0929 14.6129 20.0929L14.6129 20.093L15.9195 21.3996C15.9195 21.3996 15.9195 21.3996 15.9196 21.3996L15.9196 21.3997L22.4062 27.8863C22.6396 28.1196 22.9196 28.2129 23.1996 28.2129C23.4796 28.2129 23.7596 28.1196 23.9462 27.8863L27.6796 24.1529C28.0995 23.7329 28.0995 23.0329 27.6795 22.6129ZM6.07288 26.0662L4.44002 24.4334L19.9557 8.9624L21.5662 10.5729L6.07288 26.0662ZM22.7795 1.47289C23.1995 1.05289 23.9462 1.05289 24.3662 1.47289L26.7462 3.85289C27.1662 4.27289 27.1662 5.01954 26.7462 5.43954L24.2262 7.95954L20.2595 3.99289L22.7795 1.47289ZM19.6062 4.64624L21.5896 6.62959L23.5729 8.61289L22.2662 9.91954L18.2996 5.95289L19.6062 4.64624ZM8.98952 13.1629L9.99288 12.1595C10.1795 11.9729 10.1795 11.6929 9.99288 11.5062C9.80623 11.3195 9.52623 11.3195 9.33952 11.5062L8.33617 12.5095L7.65952 11.8329L9.29288 10.1995C9.47952 10.0129 9.47952 9.73289 9.29288 9.54619C9.10623 9.35948 8.82623 9.35954 8.63952 9.54619L7.00617 11.1795L6.35282 10.5262L7.33282 9.54619C7.51947 9.35954 7.51947 9.07954 7.33282 8.89284C7.14617 8.70613 6.86617 8.70619 6.67947 8.89284L5.69947 9.87284L5.04612 9.21948L6.67947 7.58613C6.86612 7.39948 6.86612 7.11948 6.67947 6.93278C6.49282 6.74608 6.21282 6.74613 6.02612 6.93278L4.39287 8.56624L3.69287 7.86624L4.67287 6.88624C4.85952 6.69959 4.85952 6.41959 4.67287 6.23289C4.48623 6.04619 4.20623 6.04624 4.01952 6.23289L3.03952 7.21289L2.38617 6.55954L4.01952 4.92619C4.20617 4.73954 4.20617 4.45954 4.01952 4.27284C3.83287 4.08613 3.55287 4.08619 3.36617 4.27284L1.73287 5.90624L1.07952 5.25289C0.892874 5.06624 0.892874 4.78624 1.07952 4.59954L4.39287 1.28624C4.48623 1.19289 4.57952 1.14624 4.71952 1.14624C4.81287 1.14624 4.95287 1.19289 5.04617 1.28624L13.3529 9.59289L9.38623 13.5595L8.98952 13.1629ZM17.6462 6.65289L19.2791 8.28575L3.76337 23.7567L2.15287 22.1462L17.6462 6.65289ZM1.77952 23.0795L3.31055 24.6106C3.33385 24.6639 3.36781 24.7145 3.41287 24.7595L5.09977 26.4464L1.07958 27.1395L1.77952 23.0795ZM27.0262 23.4995L23.2929 27.2329C23.2462 27.2795 23.1062 27.2795 23.0595 27.2329L18.2295 22.4029L19.8862 20.7462C20.0728 20.5596 20.0728 20.2796 19.8862 20.0929C19.6995 19.9062 19.4195 19.9062 19.2328 20.0929L17.5762 21.7495L16.8995 21.0729L17.8795 20.0929C18.0662 19.9062 18.0662 19.6262 17.8795 19.4395C17.6929 19.2529 17.4129 19.2529 17.2262 19.4395L16.2462 20.4195L15.5928 19.7662L17.2262 18.1328C17.4128 17.9462 17.4128 17.6662 17.2262 17.4795C17.0395 17.2928 16.7595 17.2928 16.5728 17.4795L14.9395 19.1129L14.6595 18.8329L18.6262 14.8662L27.0262 23.2662C27.0729 23.3129 27.0729 23.4529 27.0262 23.4995Z" fill="#E3B873"/>
</svg>
